<?xml version="1.0" encoding="UTF-8" standalone="no"?>
<!-- Generator: Adobe Illustrator 18.1.1, SVG Export Plug-In . SVG Version: 6.00 Build 0)  -->

<svg
   xmlns:dc="http://purl.org/dc/elements/1.1/"
   xmlns:cc="http://creativecommons.org/ns#"
   xmlns:rdf="http://www.w3.org/1999/02/22-rdf-syntax-ns#"
   xmlns:svg="http://www.w3.org/2000/svg"
   xmlns="http://www.w3.org/2000/svg"
   xmlns:sodipodi="http://sodipodi.sourceforge.net/DTD/sodipodi-0.dtd"
   xmlns:inkscape="http://www.inkscape.org/namespaces/inkscape"
   version="1.1"
   id="Capa_1"
   x="0px"
   y="0px"
   viewBox="0 0 274.001 193.985"
   xml:space="preserve"
   sodipodi:docname="bat 1.svg"
   width="274.00101"
   height="193.985"
   inkscape:version="0.92.4 (5da689c313, 2019-01-14)"><metadata
   id="metadata41"><rdf:RDF><cc:Work
       rdf:about=""><dc:format>image/svg+xml</dc:format><dc:type
         rdf:resource="http://purl.org/dc/dcmitype/StillImage" /><dc:title></dc:title></cc:Work></rdf:RDF></metadata><defs
   id="defs39" /><sodipodi:namedview
   pagecolor="#ffffff"
   bordercolor="#666666"
   borderopacity="1"
   objecttolerance="10"
   gridtolerance="10"
   guidetolerance="10"
   inkscape:pageopacity="0"
   inkscape:pageshadow="2"
   inkscape:window-width="1920"
   inkscape:window-height="1001"
   id="namedview37"
   showgrid="false"
   inkscape:zoom="2.4361546"
   inkscape:cx="45.86054"
   inkscape:cy="66.816458"
   inkscape:window-x="-9"
   inkscape:window-y="-9"
   inkscape:window-maximized="1"
   inkscape:current-layer="Capa_1"
   fit-margin-top="0"
   fit-margin-left="0"
   fit-margin-right="0"
   fit-margin-bottom="0" />
<g
   id="g4"
   transform="translate(0,-40.008)">
	<path
   style="fill:#030104"
   d="m 150.905,175.061 c -28.218,7.6 -21.313,-5.932 -18.589,-26.34 v 0 c -10.142,14.938 -24.158,6.084 -20.715,-7.271 -5.529,10.365 -16.657,21.303 -28.558,13.391 -12.46,-8.039 -7.688,-85 -83.043,-114.833 11.459,7.41 32.063,33.354 2.302,60.66 36.499,1.346 22.635,36.253 13.426,38.675 22.66,2.598 33.872,14.784 27.071,44.2 18.725,-10.427 52.082,-8.753 41.083,37.198 8.803,-21.631 50.63,-27.257 45.071,6.77 15.223,-19.209 48.701,-14.457 56.256,6.482 -0.384,-19.43 25.111,-35.564 41.476,-23.154 -1.149,-20.68 24.084,-39.162 47.316,-37.398 -39.757,-32.156 -92.049,-6.732 -123.096,1.62 z"
   id="path2"
   inkscape:connector-curvature="0" />
</g>
<g
   id="g6"
   transform="translate(0,-40.008)">
</g>
<g
   id="g8"
   transform="translate(0,-40.008)">
</g>
<g
   id="g10"
   transform="translate(0,-40.008)">
</g>
<g
   id="g12"
   transform="translate(0,-40.008)">
</g>
<g
   id="g14"
   transform="translate(0,-40.008)">
</g>
<g
   id="g16"
   transform="translate(0,-40.008)">
</g>
<g
   id="g18"
   transform="translate(0,-40.008)">
</g>
<g
   id="g20"
   transform="translate(0,-40.008)">
</g>
<g
   id="g22"
   transform="translate(0,-40.008)">
</g>
<g
   id="g24"
   transform="translate(0,-40.008)">
</g>
<g
   id="g26"
   transform="translate(0,-40.008)">
</g>
<g
   id="g28"
   transform="translate(0,-40.008)">
</g>
<g
   id="g30"
   transform="translate(0,-40.008)">
</g>
<g
   id="g32"
   transform="translate(0,-40.008)">
</g>
<g
   id="g34"
   transform="translate(0,-40.008)">
</g>
</svg>