<?xml version="1.0" standalone="no"?>
<!DOCTYPE svg PUBLIC "-//W3C//DTD SVG 20010904//EN"
 "http://www.w3.org/TR/2001/REC-SVG-20010904/DTD/svg10.dtd">
<svg version="1.0" xmlns="http://www.w3.org/2000/svg"
 width="1280.000000pt" height="814.000000pt" viewBox="0 0 1280.000000 814.000000"
 preserveAspectRatio="xMidYMid meet">
<g transform="translate(0.000000,814.000000) scale(0.100000,-0.100000)"
fill="#000000" stroke="none">
<path d="M6360 8079 c-71 -102 -241 -210 -445 -284 -655 -237 -2090 -292
-3615 -138 -227 23 -312 27 -590 28 -227 0 -348 -4 -400 -13 -408 -72 -639
-236 -731 -517 -19 -58 -23 -93 -24 -200 0 -71 4 -140 8 -152 8 -22 6 -23 -35
-23 -84 0 -191 -40 -258 -97 -53 -44 -106 -135 -131 -225 -20 -72 -23 -105
-23 -253 0 -197 9 -269 94 -695 84 -424 94 -495 94 -705 0 -225 -19 -320 -95
-473 -40 -83 -66 -119 -127 -183 l-77 -79 70 -73 c214 -224 276 -526 205 -992
-11 -72 -47 -265 -80 -431 -75 -376 -94 -528 -86 -694 8 -190 46 -307 129
-397 67 -73 164 -117 277 -125 42 -4 45 -6 40 -28 -3 -14 -5 -81 -5 -150 1
-99 5 -140 23 -195 31 -100 86 -189 168 -270 86 -85 184 -142 324 -189 286
-95 614 -106 1260 -41 1168 117 2421 106 3135 -26 321 -59 586 -151 742 -257
64 -43 168 -149 178 -182 8 -26 22 -26 30 0 10 33 114 139 178 182 246 167
701 280 1342 333 673 55 1681 35 2535 -50 513 -51 811 -54 1065 -10 122 22
284 77 374 128 92 52 203 160 254 247 61 106 81 185 82 330 0 69 -2 136 -5
150 -5 22 -2 24 40 28 202 15 328 127 387 342 13 50 17 104 17 235 0 196 -10
276 -89 665 -29 146 -63 326 -74 400 -72 473 -11 772 204 997 l70 73 -77 80
c-63 64 -87 99 -128 182 -74 152 -93 249 -94 468 0 208 12 298 94 710 84 423
94 497 94 695 0 148 -3 181 -23 253 -25 90 -78 181 -131 225 -67 57 -174 97
-259 97 -37 0 -42 2 -35 18 4 9 9 58 12 108 18 413 -240 674 -758 766 -52 9
-173 13 -400 13 -278 -1 -363 -5 -590 -28 -1525 -154 -2960 -99 -3615 138
-204 74 -374 182 -445 284 -19 27 -37 50 -40 50 -3 0 -21 -23 -40 -50z"/>
</g>
</svg>
